<svg xmlns="http://www.w3.org/2000/svg" width="2048" height="2048" viewBox="0 0 2048 2048" role="img" aria-label="LibreStudium logo">
  <rect width="100%" height="100%" fill="#FFFFFF"/>
  <path d="M 873 1137 L 875 1139 L 875 1145 L 877 1146 L 879 1144 L 884 1145 L 888 1142 L 891 1143 L 892 1141 L 898 1142 L 899 1140 L 901 1141 L 903 1139 L 911 1140 L 914 1138 L 921 1138 L 922 1139 L 953 1138 L 956 1140 L 965 1139 L 969 1140 L 970 1142 L 976 1141 L 977 1143 L 979 1142 L 982 1143 L 983 1145 L 995 1147 L 996 1149 L 1002 1150 L 1003 1152 L 1005 1152 L 1010 1156 L 1012 1156 L 1016 1162 L 1019 1163 L 1023 1170 L 1032 1172 L 1033 1174 L 1036 1174 L 1037 1172 L 1044 1171 L 1050 1164 L 1052 1164 L 1051 1162 L 1054 1160 L 1055 1157 L 1066 1150 L 1073 1149 L 1075 1147 L 1081 1146 L 1082 1144 L 1099 1142 L 1100 1140 L 1104 1139 L 1113 1140 L 1115 1138 L 1134 1139 L 1135 1137 L 1137 1139 L 1138 1137 L 1140 1139 L 1157 1138 L 1159 1140 L 1166 1139 L 1167 1141 L 1170 1140 L 1171 1142 L 1178 1141 L 1187 1145 L 1193 1146 L 1196 1144 L 1196 1139 L 1197 1138 L 1196 1132 L 1194 1131 L 1194 1127 L 1196 1126 L 1196 1124 L 1191 1120 L 1183 1120 L 1182 1118 L 1177 1119 L 1174 1117 L 1169 1116 L 1159 1117 L 1157 1115 L 1133 1115 L 1130 1117 L 1125 1117 L 1124 1118 L 1117 1117 L 1114 1119 L 1110 1118 L 1096 1121 L 1095 1123 L 1089 1125 L 1086 1124 L 1084 1126 L 1081 1123 L 1083 1120 L 1094 1116 L 1097 1117 L 1098 1115 L 1101 1114 L 1104 1115 L 1105 1113 L 1123 1110 L 1129 1108 L 1135 1108 L 1136 1107 L 1145 1108 L 1152 1106 L 1169 1106 L 1173 1108 L 1181 1108 L 1183 1106 L 1183 1084 L 1180 1082 L 1168 1082 L 1153 1085 L 1146 1085 L 1141 1087 L 1138 1086 L 1137 1088 L 1129 1089 L 1117 1093 L 1112 1096 L 1110 1095 L 1107 1098 L 1100 1100 L 1098 1102 L 1095 1102 L 1094 1104 L 1089 1105 L 1086 1109 L 1084 1109 L 1078 1114 L 1075 1114 L 1072 1117 L 1066 1120 L 1065 1123 L 1061 1127 L 1056 1129 L 1053 1135 L 1058 1134 L 1059 1137 L 1055 1140 L 1049 1142 L 1038 1153 L 1039 1155 L 1037 1157 L 1034 1157 L 1020 1143 L 1005 1134 L 1006 1131 L 1010 1131 L 1011 1133 L 1016 1135 L 1016 1133 L 1009 1125 L 1007 1125 L 1003 1122 L 996 1114 L 991 1113 L 988 1111 L 986 1108 L 981 1107 L 977 1103 L 973 1102 L 970 1099 L 963 1098 L 957 1095 L 956 1093 L 954 1094 L 952 1091 L 949 1092 L 948 1090 L 945 1091 L 939 1089 L 938 1087 L 934 1088 L 933 1086 L 929 1087 L 924 1085 L 918 1085 L 917 1083 L 916 1084 L 911 1084 L 903 1081 L 890 1082 L 887 1084 L 887 1106 L 894 1108 L 904 1106 L 918 1106 L 923 1108 L 928 1107 L 940 1108 L 948 1111 L 953 1110 L 960 1112 L 961 1114 L 963 1113 L 964 1115 L 969 1114 L 972 1117 L 974 1116 L 978 1117 L 983 1122 L 982 1123 L 977 1123 L 974 1121 L 969 1122 L 967 1120 L 961 1120 L 958 1117 L 957 1118 L 955 1117 L 945 1118 L 944 1117 L 937 1117 L 935 1115 L 913 1115 L 912 1117 L 903 1117 L 902 1118 L 894 1117 L 890 1119 L 887 1118 L 886 1120 L 875 1122 L 874 1125 L 875 1136 Z
M 1084 914 L 1083 915 L 1060 915 L 1059 914 L 1057 916 L 1054 917 L 1051 916 L 1050 918 L 1044 919 L 1030 928 L 1021 937 L 1015 948 L 1013 949 L 1014 951 L 1011 959 L 1011 976 L 1015 988 L 1022 999 L 1030 1008 L 1032 1008 L 1034 1011 L 1042 1014 L 1044 1017 L 1046 1016 L 1050 1020 L 1056 1021 L 1059 1024 L 1061 1023 L 1063 1026 L 1066 1025 L 1068 1027 L 1072 1028 L 1073 1030 L 1076 1030 L 1077 1032 L 1079 1031 L 1080 1033 L 1082 1032 L 1084 1034 L 1086 1034 L 1090 1038 L 1092 1038 L 1100 1046 L 1099 1049 L 1101 1050 L 1100 1054 L 1095 1054 L 1089 1058 L 1082 1060 L 1080 1062 L 1076 1062 L 1063 1071 L 1060 1071 L 1059 1073 L 1051 1078 L 1050 1080 L 1040 1088 L 1040 1093 L 1038 1094 L 1038 1106 L 1040 1107 L 1040 1109 L 1038 1110 L 1038 1120 L 1040 1121 L 1040 1128 L 1038 1130 L 1040 1132 L 1048 1123 L 1050 1123 L 1051 1120 L 1056 1115 L 1058 1115 L 1059 1112 L 1075 1100 L 1081 1098 L 1085 1094 L 1087 1095 L 1089 1092 L 1091 1091 L 1093 1092 L 1097 1088 L 1099 1089 L 1104 1085 L 1107 1086 L 1108 1084 L 1110 1085 L 1114 1082 L 1117 1083 L 1118 1081 L 1120 1082 L 1124 1079 L 1129 1080 L 1130 1078 L 1134 1077 L 1134 1044 L 1131 1041 L 1132 1036 L 1129 1034 L 1128 1028 L 1125 1026 L 1124 1023 L 1122 1022 L 1122 1020 L 1105 1007 L 1102 1007 L 1099 1004 L 1095 1003 L 1093 1001 L 1091 1002 L 1089 1000 L 1086 1000 L 1083 997 L 1080 997 L 1079 995 L 1075 995 L 1056 986 L 1051 981 L 1049 981 L 1045 976 L 1046 974 L 1043 971 L 1044 968 L 1043 961 L 1046 959 L 1045 957 L 1053 949 L 1067 945 L 1082 946 L 1096 952 L 1101 957 L 1108 960 L 1126 942 L 1127 937 L 1116 928 L 1099 919 L 1094 918 L 1092 916 L 1091 917 L 1085 916 Z
M 939 915 L 938 920 L 939 921 L 939 1075 L 938 1077 L 940 1080 L 946 1079 L 949 1082 L 953 1082 L 960 1085 L 962 1084 L 968 1088 L 971 1089 L 974 1088 L 975 1090 L 978 1090 L 980 1093 L 986 1094 L 989 1098 L 994 1099 L 1009 1110 L 1020 1122 L 1024 1124 L 1024 1127 L 1028 1131 L 1031 1132 L 1035 1129 L 1032 1127 L 1031 1124 L 1031 1091 L 1032 1089 L 1030 1086 L 1027 1085 L 1022 1080 L 1015 1076 L 1011 1071 L 1003 1068 L 1001 1065 L 997 1064 L 993 1061 L 991 1062 L 989 1060 L 987 1060 L 986 1058 L 970 1053 L 970 1047 L 971 1046 L 971 1025 L 970 1024 L 971 1022 L 970 1020 L 970 1015 L 971 1014 L 971 996 L 970 995 L 970 990 L 971 989 L 971 978 L 970 977 L 971 974 L 971 963 L 970 962 L 971 957 L 971 937 L 970 936 L 971 934 L 971 923 L 970 920 L 971 916 L 970 915 Z
M 988 1124 L 991 1122 L 992 1124 L 998 1125 L 1002 1129 L 997 1131 L 990 1128 L 988 1126 Z
M 1074 1128 L 1072 1131 L 1066 1134 L 1061 1133 L 1061 1131 L 1063 1129 L 1069 1126 Z" fill="#000000" fill-rule="evenodd"/>
</svg>
